<svg width="512" height="512" viewBox="0 0 512 512" fill="none" xmlns="http://www.w3.org/2000/svg">
<path d="M410.059 156.665C405.479 153.649 399.683 153.099 392.83 155.048C385.665 157.078 375.451 165.495 366.863 173.866C374.395 156.745 385.665 127.549 386.398 112.94C386.688 107.103 386.721 100.292 384.717 93.9503C382.465 86.8177 377.735 81.2904 372.067 79.1575C366.734 77.1507 360.366 77.9649 354.602 81.4051C349.355 84.5357 345.368 89.2029 342.168 93.354C333.947 104.007 327.385 116.002 321.028 127.595C318.281 132.618 310.728 147.996 302.744 164.291C301.763 166.297 300.772 168.304 299.792 170.311C305.804 153.477 312.193 136.253 319.401 117.103C327.375 95.9227 330.144 80.1666 327.838 68.9516C326.825 64.0092 324.918 60.0186 322.181 57.083C315.479 49.9274 304.64 48.2417 296.408 53.0695C289.233 57.278 284.007 65.4771 279.406 72.7129L278.275 74.4903C273.513 81.9097 261.37 112.734 250.66 139.923C249.916 141.803 249.184 143.672 248.451 145.519C250.714 136.689 252.879 127.767 254.689 118.926C256.672 109.167 258.73 99.0762 259.193 88.8015C259.236 87.8612 259.279 86.9323 259.322 85.992C259.786 76.6118 260.26 66.9219 256.241 58.0807C255.293 55.9936 252.89 52.7599 249.248 50.5237C246.091 48.5858 240.93 46.7625 234.239 49.1018C227.559 51.4411 221.234 56.6587 215.955 64.1927C211.16 71.0387 208.003 78.7447 205.547 85.3957C202.584 93.4114 200.009 101.702 197.52 109.729C193.307 123.307 188.954 137.342 182.651 150.083C179.602 156.241 176.003 162.272 172.523 168.109C171.65 169.577 170.023 172.788 168.267 176.285C168.342 172.581 168.353 168.705 168.331 164.531V162.88C168.256 148.856 168.159 127.676 160.972 115.692C153.861 103.847 138.594 94.1338 124.296 99.5005C116.581 102.39 110.009 109.454 106.238 118.892C103.619 125.451 102.122 134.877 101.658 147.732C101.227 159.692 101.809 171.068 102.369 182.076C102.887 192.294 103.436 202.867 103.145 213.841C102.854 225.17 101.701 236.856 100.581 248.151C98.7061 267.06 96.799 286.417 98.7816 305.292C95.7647 308.182 91.304 313.285 86.9942 320.785C82.5228 328.571 78.4607 335.073 76.1227 348.26C74.5819 356.952 76.5536 368.683 80.1416 380.586C83.8372 392.868 91.8104 406.388 105.494 419.598C115.579 429.334 120.622 435.561 137.99 445.755C148.711 452.039 167.491 458.461 182.489 461.052C200.472 464.171 219.834 465.513 234.035 461.545C239.12 460.123 246.436 459.779 250.854 456.741C255.691 453.404 263.104 447.131 266.671 442.315C276.734 428.692 278.34 422.064 280.936 406.124C282.078 405.436 283.167 404.748 284.201 404.06C297.938 394.989 312.01 372.089 327.202 334.075C333.796 317.562 350.895 293.011 359.116 281.211C360.722 278.906 361.982 277.094 362.769 275.913C365.053 272.473 369.654 266.762 374.977 260.157C389.522 242.108 411.491 214.838 417.924 194.885C419.712 189.324 420.876 180.276 419.616 173.774C419.034 170.735 417.245 161.47 410.037 156.722L410.059 156.665ZM412.838 192.982C406.74 211.891 385.18 238.667 370.904 256.384C365.269 263.379 360.819 268.907 358.384 272.565C357.619 273.723 356.369 275.5 354.796 277.759C347.512 288.217 333.354 308.549 325.327 324.947C318.927 335.394 310.555 348.122 302.334 357.858C292.734 369.222 282.499 393.005 253.256 402.214C204.598 417.522 157.74 388.281 148.463 381.997C147.202 380.942 145.953 379.875 144.703 378.775C126.677 362.824 114.491 345.118 108.5 326.163C100.721 301.588 103.382 274.72 105.947 248.736C107.078 237.326 108.242 225.537 108.543 213.978C108.834 202.775 108.285 192.087 107.757 181.744C107.196 170.873 106.625 159.623 107.056 147.927C107.498 135.783 108.856 127.01 111.215 121.105C114.394 113.147 119.813 107.229 126.106 104.879C137.785 100.498 150.467 108.766 156.458 118.754C162.804 129.338 162.901 149.532 162.966 162.892V164.554C163.084 183.579 162.416 196.273 158.526 213.772C158.279 214.632 158.031 215.641 157.837 216.765C157.783 217.006 157.729 217.246 157.665 217.499C157.589 217.831 157.578 218.175 157.6 218.496C157.277 221.902 157.675 225.87 160.229 229.069C173.029 245.1 202.077 258.024 211.71 268.459C234.659 293.309 235.899 309.432 241.006 305.028C244.044 302.414 234.724 279.112 229.272 270.489C223.81 261.877 224.596 253.552 187.909 222.097C177.727 213.371 182.446 193.005 186.777 179.783C190.441 168.602 198.026 133.914 199.696 120.933C200.698 117.791 201.679 114.649 202.648 111.53C205.116 103.583 207.658 95.3608 210.568 87.5057C212.895 81.2102 215.869 73.9284 220.275 67.6329C223.486 63.046 228.809 57.0486 235.909 54.5717C245.025 51.3952 250.433 58.5164 251.382 60.6035C254.797 68.1145 254.377 76.6577 253.935 85.7053C253.892 86.6571 253.838 87.6089 253.795 88.5492C253.353 98.3537 251.349 108.204 249.41 117.733C246.63 131.38 242.956 145.289 239.39 158.752C237.342 166.492 235.263 174.393 233.323 182.317C233.323 182.352 233.313 182.386 233.302 182.42C231.858 188.315 230.501 194.22 229.305 200.103C228.992 201.651 229.908 203.176 231.362 203.509C231.556 203.555 231.75 203.577 231.934 203.577C232.526 203.577 233.097 203.36 233.55 202.993C233.55 203.016 233.55 203.027 233.55 203.05C233.55 203.05 245.283 198.647 247.912 185.012C248.72 180.826 250.509 169.749 251.92 162.57C254.539 149.223 259.872 132.366 261.671 126.85C270.259 105.188 279.126 83.3775 282.714 77.77L283.856 75.9811C288.123 69.2842 292.95 61.6814 298.994 58.138C305.071 54.5717 313.4 55.879 318.356 61.1768C320.36 63.3212 321.772 66.36 322.569 70.213C324.605 80.1322 321.847 95.2002 314.391 115.004C300.19 152.72 289.136 183.028 277.962 217.522C277.478 219.024 278.221 220.652 279.632 221.168C279.923 221.271 280.214 221.329 280.505 221.329C281.227 221.329 281.927 221.008 282.423 220.469C283.544 219.437 288.22 214.586 292.282 202.385C293.305 199.289 308.304 166.401 315.221 151.264C319.908 141.757 323.894 133.742 325.661 130.531C331.9 119.132 338.354 107.344 346.305 97.0465C349.193 93.3081 352.749 89.1226 357.209 86.4622C361.627 83.8247 366.378 83.1481 370.246 84.6159C374.373 86.164 377.864 90.3611 379.588 95.8309C381.301 101.243 381.269 107.138 380.989 112.688C380.041 131.529 359.547 178.338 356.196 183.533C354.634 185.952 353.115 188.406 351.607 190.872C351.596 190.895 351.574 190.918 351.563 190.941C351.52 190.998 351.499 191.067 351.466 191.124C342.642 205.665 334.928 221.031 328.506 236.913C327.913 238.369 328.549 240.055 329.917 240.686C330.241 240.835 330.564 240.903 330.898 240.915C330.898 240.949 330.876 240.984 330.876 241.018C330.876 241.018 338.117 240.548 343.116 226.718C350.863 205.275 361.659 189.06 367.758 180.895C376.56 172.042 387.701 162.502 394.198 160.655C399.564 159.142 403.939 159.463 407.203 161.607C412.44 165.059 413.873 172.49 414.336 174.932C415.349 180.184 414.358 188.257 412.817 193.039L412.838 192.982Z" fill="#191919"/>
<path d="M431.584 150.128C430.42 151.114 430.237 152.926 431.163 154.153C443.77 170.906 438.178 192.58 436.346 199.701C435.947 201.226 436.798 202.808 438.232 203.221C438.469 203.29 438.706 203.324 438.943 203.324C440.128 203.324 441.216 202.487 441.539 201.214C443.554 193.394 449.685 169.599 435.365 150.563C434.439 149.325 432.736 149.13 431.584 150.116V150.128Z" fill="#191919"/>
<path d="M461.022 157.619C460.515 156.128 458.975 155.36 457.574 155.899C456.173 156.438 455.451 158.078 455.958 159.568C459.449 169.843 459.513 178.765 456.173 187.629C455.624 189.097 456.292 190.771 457.671 191.356C457.994 191.493 458.339 191.562 458.673 191.562C459.74 191.562 460.752 190.885 461.173 189.762C464.987 179.647 464.944 169.132 461.033 157.619H461.022Z" fill="#191919"/>
<path d="M77.8126 243.322C78.319 241.831 77.5971 240.192 76.1964 239.653C74.7958 239.114 73.255 239.882 72.7486 241.373C66.7902 258.849 65.8636 278.389 70.1411 296.416C70.4536 297.711 71.5418 298.583 72.7486 298.583C72.9641 298.583 73.1903 298.56 73.4166 298.491C74.8604 298.101 75.7331 296.542 75.3668 295.005C71.3479 278.08 72.2099 259.732 77.8126 243.322Z" fill="#191919"/>
<path d="M53.6132 262.702C53.7209 261.12 52.6004 259.755 51.1243 259.64C49.6482 259.526 48.3552 260.718 48.2475 262.289C47.3532 275.546 48.8939 289.249 52.6866 301.92C53.0529 303.136 54.1088 303.916 55.2509 303.916C55.5203 303.916 55.8004 303.87 56.0698 303.778C57.492 303.296 58.2678 301.68 57.8153 300.177C54.2166 288.205 52.7728 275.236 53.6132 262.702Z" fill="#191919"/>
</svg>
